<?xml version="1.0" encoding="utf-8"?>
<!-- Generator: Adobe Illustrator 26.0.0, SVG Export Plug-In . SVG Version: 6.00 Build 0)  -->
<svg version="1.1" id="Camada_1" xmlns="http://www.w3.org/2000/svg" xmlns:xlink="http://www.w3.org/1999/xlink" x="0px" y="0px"
	 viewBox="0 0 286 160" style="enable-background:new 0 0 286 160;" xml:space="preserve">
<style type="text/css">
	.st0{clip-path:url(#SVGID_00000153669391840480142970000003051241166036190602_);}
	.st1{fill:url(#SVGID_00000079476773690868429900000007331766975238161554_);filter:url(#Adobe_OpacityMaskFilter);}
	.st2{mask:url(#mask0_4_179_00000161591841642636714720000016546374478677536422_);}
	.st3{fill:#EA96C1;}
	.st4{fill:url(#SVGID_00000088103143693546097560000012401716072958222220_);}
	.st5{fill:#E84F96;}
	.st6{fill:#FFFFFF;}
	.st7{fill:#E2D45C;}
	.st8{fill:url(#SVGID_00000011004797947902811710000006658354355078434177_);}
	.st9{fill:url(#SVGID_00000047756974677713071770000014236365591471259296_);}
	.st10{fill:url(#SVGID_00000006675410587176668360000017977600393311630010_);}
	.st11{fill:url(#SVGID_00000098198612720844693460000006859639339170212505_);}
	.st12{fill:url(#SVGID_00000072988709263895208180000000492581192399037596_);}
	.st13{fill:url(#SVGID_00000080183038815885528030000006801392913321687975_);}
	.st14{fill:url(#SVGID_00000033330097548298010480000012192854046525625781_);}
	.st15{fill-rule:evenodd;clip-rule:evenodd;fill:#E84F96;}
	.st16{fill-rule:evenodd;clip-rule:evenodd;fill:#FFFFFF;}
	.st17{fill:url(#SVGID_00000042723379856995258210000017999564567440527746_);}
	.st18{fill:url(#SVGID_00000087399715567708615480000004204130473891225732_);}
	.st19{fill:url(#SVGID_00000118394814541492432080000005206042423241188285_);}
	.st20{fill:url(#SVGID_00000149370009525760528310000015378017482357068956_);}
	.st21{fill:url(#SVGID_00000080904137986391151130000013952038318384141468_);}
</style>
<g>
	<defs>
		<rect id="SVGID_1_" y="0" width="285" height="160"/>
	</defs>
	<clipPath id="SVGID_00000109749016222243187540000002492505713574493613_">
		<use xlink:href="#SVGID_1_"  style="overflow:visible;"/>
	</clipPath>
	<g style="clip-path:url(#SVGID_00000109749016222243187540000002492505713574493613_);">
		<defs>
			<filter id="Adobe_OpacityMaskFilter" filterUnits="userSpaceOnUse" x="0" y="20.4" width="285" height="119.1">
				<feColorMatrix  type="matrix" values="1 0 0 0 0  0 1 0 0 0  0 0 1 0 0  0 0 0 1 0"/>
			</filter>
		</defs>
		
			<mask maskUnits="userSpaceOnUse" x="0" y="20.4" width="285" height="119.1" id="mask0_4_179_00000161591841642636714720000016546374478677536422_">
			
				<linearGradient id="SVGID_00000093153244580975974350000009451775089866839743_" gradientUnits="userSpaceOnUse" x1="142.469" y1="85.1341" x2="142.469" y2="24.341" gradientTransform="matrix(1 0 0 -1 0 159.89)">
				<stop  offset="0" style="stop-color:#D9D9D9"/>
				<stop  offset="1" style="stop-color:#D9D9D9;stop-opacity:0"/>
			</linearGradient>
			
				<rect y="17.1" style="fill:url(#SVGID_00000093153244580975974350000009451775089866839743_);filter:url(#Adobe_OpacityMaskFilter);" width="284.9" height="124.1"/>
		</mask>
		<g class="st2">
			<path class="st3" d="M249.2,33.3L233.1,28l-66.3,0.2L155.3,24l-9.7,4L104.1,28l-16.4-7.5H63.7L60,28H39.2L0,90.4l43.6,49.2h197.8
				L285,90.4L249.2,33.3L249.2,33.3z M240.4,137.3H44.6L2.8,90.1l37.6-59.9h21l3.7-7.5h22l16.4,7.5l42.4,0.1l9.3-3.9l11,4l66.4-0.2
				l15,5l34.5,54.9L240.4,137.3L240.4,137.3z"/>
		</g>
		
			<linearGradient id="SVGID_00000075159822540370624960000007509270291227420832_" gradientUnits="userSpaceOnUse" x1="142.5168" y1="67.9785" x2="142.5168" y2="23.723" gradientTransform="matrix(1 0 0 -1 0 159.89)">
			<stop  offset="0" style="stop-color:#28203E"/>
			<stop  offset="1" style="stop-color:#121214;stop-opacity:0"/>
		</linearGradient>
		<path style="fill:url(#SVGID_00000075159822540370624960000007509270291227420832_);" d="M282.3,90.1l-41.8,47.2H44.6L2.8,90.1
			l37.6-59.9h21l3.7-7.5h22l16.4,7.5l42.4,0.1l9.3-3.9l11,4l66.4-0.2l15,5L282.3,90.1z"/>
		<path class="st5" d="M282.2,90.1l-34.5-54.9l-15-5l-66.3,0.2l-11-4l-9.3,3.9l-42.4-0.1l-16.4-7.5h-22l-3.7,7.5h-21L2.8,90.1H28
			l19,14.1h30.7l4.6-14.1h19.9l4.6-19.9h4.5l6.1-2.7L116.1,81l17,9.1H282.2z"/>
		<path class="st6" d="M16.1,82.8h21.4l3.7-7.1h-9.5l6.7-11.8l11-4l3.5-6.7l-10.5,3.7l5.6-9.8l-3.3-5h6.1h7.9l2.4-4.5H44.5
			L16.1,82.8z"/>
		<path class="st6" d="M69.7,30L57.3,55.4l15.1,9l5.9,3.1l-9,4.9L63,88.8H52.8l10.9-25.1l-8.1-4.8L40.3,90.1l9.1,6.7h22.9L83.7,62
			l-15.5-8.5l8.4-19.3H84l5.1,2.1l-7.2,3.4l-4.9,12.8l8.4,4.5L93,33.5L85.5,30H69.7z"/>
		<path class="st6" d="M97.7,37.6l-13,45.2h11.6l4.6-19.9h8.9l11-4.8l2-16.6l-8.5-3.8H97.7L97.7,37.6z M112.6,47.2l-1.8,9.8h-8.6
			l3.4-15h7.9l5.8,2.4L112.6,47.2L112.6,47.2z"/>
		<path class="st6" d="M127.7,37.6l-3.7,39.3l11,5.9h21.4l-2.8-41.3l-9.2-3.8H127.7L127.7,37.6z M144.5,51.5l0.3,24.2h-9.5l1.3-33.6
			h7.9l6,2.4L144.5,51.5L144.5,51.5z"/>
		<path class="st6" d="M159.9,41.4l4.5,41.3h11.6l-3.3-19.9h8.9l4.3,19.9h11.6l-5.2-19.1l-6.8-2.9l5.3-2.8l-5.6-20.4h-16.6
			L159.9,41.4z M180.3,57.1h-8.6l-1.6-9.8l-6.7-2.8l5.8-2.4h7.9L180.3,57.1L180.3,57.1z"/>
		<path class="st6" d="M189.4,42.1h7.7l13.8,40.7h11.6L208.3,47l-8.1-5H214l-2-4.5H188L189.4,42.1z"/>
		<path class="st6" d="M252.7,56.9l-9.8-15.6l-11.4-3.8h-16.6l8.3,17.9l23.6,9l6.5,11.3h-9.5l-6.3-12l-12.7-4.8l8.4,18l14.3,5.9
			h21.4l-13-20.8l-23.7-8.5l-3.3-6.4l-8.7-5h14l5.9,10.3L252.7,56.9z"/>
		<path class="st7" d="M155.8,32.2c-1.2,1.2-2.6,2.3-4.1,3.3c1.7,1,3.2,2.2,4.7,3.4c1.2-1.3,2.6-2.4,4.1-3.4
			C158.7,34.4,157.2,33.3,155.8,32.2z"/>
		
			<linearGradient id="SVGID_00000096769570836285394360000010498500254726588823_" gradientUnits="userSpaceOnUse" x1="28.7894" y1="98.8746" x2="28.7894" y2="81.4349" gradientTransform="matrix(1 0 0 -1 0 159.89)">
			<stop  offset="0" style="stop-color:#A9A9AD"/>
			<stop  offset="1" style="stop-color:#A9A9AD;stop-opacity:0"/>
		</linearGradient>
		<path style="fill:url(#SVGID_00000096769570836285394360000010498500254726588823_);" d="M29.2,77.2l7-12.2
			c-2.6,0.3-5.1,0.6-7.7,0.9l-9.7,15.4h17.9l2.1-4.1H29.2z"/>
		
			<linearGradient id="SVGID_00000139991631087959858480000013786827181389959327_" gradientUnits="userSpaceOnUse" x1="61.9984" y1="98.8749" x2="61.9984" y2="81.4352" gradientTransform="matrix(1 0 0 -1 0 159.89)">
			<stop  offset="0" style="stop-color:#A9A9AD"/>
			<stop  offset="1" style="stop-color:#A9A9AD;stop-opacity:0"/>
		</linearGradient>
		<path style="fill:url(#SVGID_00000139991631087959858480000013786827181389959327_);" d="M79.1,61.2c-2.8,0.2-5.5,0.4-8.2,0.6
			l2.3,1.3l7.4,3.8l1.4-4.2L79.1,61.2z M70.5,73.3L64,90.3H50.6l11.2-26l-2.7-1.6c-1.3,0.1-2.6,0.2-3.9,0.4L42.1,89.7l7.7,5.7h21.4
			l8.9-27.2L70.5,73.3z"/>
		
			<linearGradient id="SVGID_00000139981070206891905540000012836915730721785504_" gradientUnits="userSpaceOnUse" x1="100.1946" y1="98.8749" x2="100.1946" y2="81.4352" gradientTransform="matrix(1 0 0 -1 0 159.89)">
			<stop  offset="0" style="stop-color:#A9A9AD"/>
			<stop  offset="1" style="stop-color:#A9A9AD;stop-opacity:0"/>
		</linearGradient>
		<path style="fill:url(#SVGID_00000139981070206891905540000012836915730721785504_);" d="M113.7,59.5l-4.3,1.9h-9.7l-4.6,19.9
			h-8.4l6-20.9C99.6,60,106.6,59.7,113.7,59.5z"/>
		
			<linearGradient id="SVGID_00000141436053650676682820000005996296641612258207_" gradientUnits="userSpaceOnUse" x1="140.152" y1="98.8747" x2="140.152" y2="81.4349" gradientTransform="matrix(1 0 0 -1 0 159.89)">
			<stop  offset="0" style="stop-color:#A9A9AD"/>
			<stop  offset="1" style="stop-color:#A9A9AD;stop-opacity:0"/>
		</linearGradient>
		<path style="fill:url(#SVGID_00000141436053650676682820000005996296641612258207_);" d="M154.8,81.3h-19.5l-9.8-5.3l1.6-16.9
			c2.4,0,4.8-0.1,7.3-0.1l-0.7,18.2h12.5L146,58.9c1.1,0,2.2,0,3.3,0c1.3,0,2.6,0,3.9,0L154.8,81.3z"/>
		
			<linearGradient id="SVGID_00000096775388622376967850000016214136279990526379_" gradientUnits="userSpaceOnUse" x1="179.3625" y1="98.8749" x2="179.3625" y2="81.4351" gradientTransform="matrix(1 0 0 -1 0 159.89)">
			<stop  offset="0" style="stop-color:#A9A9AD"/>
			<stop  offset="1" style="stop-color:#A9A9AD;stop-opacity:0"/>
		</linearGradient>
		<path style="fill:url(#SVGID_00000096775388622376967850000016214136279990526379_);" d="M195.4,81.3H187l-4.3-19.9h-11.8
			l3.3,19.9h-8.5L163.3,59c7.2,0.1,14.4,0.2,21.5,0.5l-2.8,1.5l9,3.8L195.4,81.3z"/>
		
			<linearGradient id="SVGID_00000122695598004305268570000017178382937550026380_" gradientUnits="userSpaceOnUse" x1="212.593" y1="98.875" x2="212.593" y2="81.4352" gradientTransform="matrix(1 0 0 -1 0 159.89)">
			<stop  offset="0" style="stop-color:#A9A9AD"/>
			<stop  offset="1" style="stop-color:#A9A9AD;stop-opacity:0"/>
		</linearGradient>
		<path style="fill:url(#SVGID_00000122695598004305268570000017178382937550026380_);" d="M212.1,60.7c-2.4-0.1-4.8-0.3-7.3-0.4
			l7.1,21h8.3L212.1,60.7z"/>
		
			<linearGradient id="SVGID_00000161604620089099904600000012122074155228002700_" gradientUnits="userSpaceOnUse" x1="247.0095" y1="98.8746" x2="247.0095" y2="81.4348" gradientTransform="matrix(1 0 0 -1 0 159.89)">
			<stop  offset="0" style="stop-color:#A9A9AD"/>
			<stop  offset="1" style="stop-color:#A9A9AD;stop-opacity:0"/>
		</linearGradient>
		<path style="fill:url(#SVGID_00000161604620089099904600000012122074155228002700_);" d="M255.5,64.2c-2.5-0.3-5-0.5-7.5-0.8
			l7.8,13.7h-13l-6.4-12.3l-8.2-3.1c-0.2,0-0.4,0-0.5,0l6.5,14l13.5,5.6h18.5L255.5,64.2z"/>
		<path class="st15" d="M118.1,116v-3l-8.4,3.1h0v3.1h0l8.4,3.1v-3.1l-4.3-1.7L118.1,116z"/>
		<path class="st15" d="M166.9,122.2v-3l4.3-1.6l-4.3-1.6v-3l8.4,3.1h0v3.1h0L166.9,122.2L166.9,122.2z M163.3,108.5l-4.9,15.9h2.9
			l4.9-15.9H163.3z"/>
		<path class="st16" d="M130.5,112.4c0.8,0.9,1.3,2.1,1.2,3.4v6.8h-2.9v-6.1c0-0.7-0.2-1.4-0.6-1.9c-0.4-0.5-1-0.7-1.6-0.7
			c-1.8,0-2.8,1.3-2.8,3.8v4.9h-2.9v-11.1h2.9v1c0.9-0.9,2.2-1.4,3.5-1.3C128.5,111,129.7,111.5,130.5,112.4L130.5,112.4z"/>
		<path class="st16" d="M135.5,106.8v15.9h2.9v-15.9H135.5z"/>
		<path class="st16" d="M155,122.1h-2.5l-2.4-6.5l-2.4,6.5h-2.4l-4.1-11.1h3.1l2.3,6.7l2.4-6.7h2.3l2.4,6.7l2.3-6.7h3.1L155,122.1z"
			/>
		
			<linearGradient id="SVGID_00000026140328636081481730000014676263766013760389_" gradientUnits="userSpaceOnUse" x1="258.4387" y1="80.4849" x2="65.9265" y2="79.4969" gradientTransform="matrix(1 0 0 -1 0 159.89)">
			<stop  offset="0" style="stop-color:#996DFF"/>
			<stop  offset="0.5" style="stop-color:#35E8B3"/>
			<stop  offset="1" style="stop-color:#E2D45C"/>
		</linearGradient>
		<path style="fill:url(#SVGID_00000026140328636081481730000014676263766013760389_);" d="M12,25.9c3.3-8,10-14.4,20-18.8
			c9.5-4.3,21.5-6.6,35.8-7c29.2-0.8,64.4,6.6,99.2,21c2.5,1,5,2.1,7.4,3.2l-3.5,0c-1.5-0.6-3-1.3-4.5-1.9
			C95.1-7.1,26.4-5.3,13.3,26.5c-3.8,9.2-2.6,19.9,2.9,31.2c13.3,27.7,51.9,59,102.5,79.9c4.9,2,9.8,3.9,14.7,5.7
			c29.7,10.6,59,16,83.9,15.3c14.1-0.4,25.9-2.7,35.2-6.9c9.6-4.3,16.1-10.4,19.2-18.1c2.9-6.9,2.9-14.7,0.3-23l1.1-1.2
			c3,9.1,2.9,17.4-0.1,24.8c-3.3,8-10,14.4-20,18.8c-9.5,4.3-21.5,6.6-35.8,7c-1.5,0-3,0.1-4.5,0.1c-25.1,0-54.2-5.8-83.6-16.7
			c-3.7-1.4-7.4-2.8-11.1-4.4c-34.8-14.4-65-34-85-55.3C25.2,75.3,19.2,67,15.3,59.1c-1-1.9-1.8-3.8-2.5-5.7
			C8.9,43.2,8.6,34,12,25.9z"/>
		
			<radialGradient id="SVGID_00000119097845672309254950000003420436206123148943_" cx="-152.139" cy="499.5575" r="1" gradientTransform="matrix(124.5455 35.1515 58.3718 -206.8174 -10071.0898 108811.3359)" gradientUnits="userSpaceOnUse">
			<stop  offset="0" style="stop-color:#171226"/>
			<stop  offset="1" style="stop-color:#171226;stop-opacity:0"/>
		</radialGradient>
		<path style="fill:url(#SVGID_00000119097845672309254950000003420436206123148943_);" d="M12,25.9c3.3-8,10-14.4,20-18.8
			c9.5-4.3,21.5-6.6,35.8-7c29.2-0.8,64.4,6.6,99.2,21c2.5,1,5,2.1,7.4,3.2l-3.5,0c-1.5-0.6-3-1.3-4.5-1.9
			C95.1-7.1,26.4-5.3,13.3,26.5c-3.8,9.2-2.6,19.9,2.9,31.2c13.3,27.7,51.9,59,102.5,79.9c4.9,2,9.8,3.9,14.7,5.7
			c29.7,10.6,59,16,83.9,15.3c14.1-0.4,25.9-2.7,35.2-6.9c9.6-4.3,16.1-10.4,19.2-18.1c2.9-6.9,2.9-14.7,0.3-23l1.1-1.2
			c3,9.1,2.9,17.4-0.1,24.8c-3.3,8-10,14.4-20,18.8c-9.5,4.3-21.5,6.6-35.8,7c-1.5,0-3,0.1-4.5,0.1c-25.1,0-54.2-5.8-83.6-16.7
			c-3.7-1.4-7.4-2.8-11.1-4.4c-34.8-14.4-65-34-85-55.3C25.2,75.3,19.2,67,15.3,59.1c-1-1.9-1.8-3.8-2.5-5.7
			C8.9,43.2,8.6,34,12,25.9z"/>
		
			<radialGradient id="SVGID_00000101788383983009551440000018149367871584831417_" cx="-163.436" cy="506.1393" r="1" gradientTransform="matrix(-26.8181 -11.3637 -18.8704 44.5337 5341.9614 -24372.5195)" gradientUnits="userSpaceOnUse">
			<stop  offset="0" style="stop-color:#261945"/>
			<stop  offset="1" style="stop-color:#261945;stop-opacity:0"/>
		</radialGradient>
		<path style="fill:url(#SVGID_00000101788383983009551440000018149367871584831417_);" d="M12,25.9c3.3-8,10-14.4,20-18.8
			c9.5-4.3,21.5-6.6,35.8-7c29.2-0.8,64.4,6.6,99.2,21c2.5,1,5,2.1,7.4,3.2l-3.5,0c-1.5-0.6-3-1.3-4.5-1.9
			C95.1-7.1,26.4-5.3,13.3,26.5c-3.8,9.2-2.6,19.9,2.9,31.2c13.3,27.7,51.9,59,102.5,79.9c4.9,2,9.8,3.9,14.7,5.7
			c29.7,10.6,59,16,83.9,15.3c14.1-0.4,25.9-2.7,35.2-6.9c9.6-4.3,16.1-10.4,19.2-18.1c2.9-6.9,2.9-14.7,0.3-23l1.1-1.2
			c3,9.1,2.9,17.4-0.1,24.8c-3.3,8-10,14.4-20,18.8c-9.5,4.3-21.5,6.6-35.8,7c-1.5,0-3,0.1-4.5,0.1c-25.1,0-54.2-5.8-83.6-16.7
			c-3.7-1.4-7.4-2.8-11.1-4.4c-34.8-14.4-65-34-85-55.3C25.2,75.3,19.2,67,15.3,59.1c-1-1.9-1.8-3.8-2.5-5.7
			C8.9,43.2,8.6,34,12,25.9z"/>
		<path class="st3" d="M12,25.9c3.3-8,10-14.4,20-18.8c9.5-4.3,21.5-6.6,35.8-7c29.2-0.8,64.4,6.6,99.2,21c2.5,1,5,2.1,7.4,3.2
			l-3.5,0c-1.5-0.6-3-1.3-4.5-1.9C95.1-7.1,26.4-5.3,13.3,26.5c-3.8,9.2-2.6,19.9,2.9,31.2c13.3,27.7,51.9,59,102.5,79.9
			c4.9,2,9.8,3.9,14.7,5.7c29.7,10.6,59,16,83.9,15.3c14.1-0.4,25.9-2.7,35.2-6.9c9.6-4.3,16.1-10.4,19.2-18.1
			c2.9-6.9,2.9-14.7,0.3-23l1.1-1.2c3,9.1,2.9,17.4-0.1,24.8c-3.3,8-10,14.4-20,18.8c-9.5,4.3-21.5,6.6-35.8,7c-1.5,0-3,0.1-4.5,0.1
			c-25.1,0-54.2-5.8-83.6-16.7c-3.7-1.4-7.4-2.8-11.1-4.4c-34.8-14.4-65-34-85-55.3C25.2,75.3,19.2,67,15.3,59.1
			c-1-1.9-1.8-3.8-2.5-5.7C8.9,43.2,8.6,34,12,25.9z"/>
		
			<linearGradient id="SVGID_00000036930326197724825850000007485107865084659627_" gradientUnits="userSpaceOnUse" x1="122.2471" y1="131.2752" x2="165.2771" y2="22.1846" gradientTransform="matrix(1 0 0 -1 0 159.89)">
			<stop  offset="0" style="stop-color:#996DFF"/>
			<stop  offset="0.5" style="stop-color:#35E8B3"/>
			<stop  offset="1" style="stop-color:#E2D45C"/>
		</linearGradient>
		<path style="fill:url(#SVGID_00000036930326197724825850000007485107865084659627_);" d="M273.1,25.9c-3.3-8-10-14.4-20-18.8
			c-9.5-4.3-21.5-6.6-35.8-7c-29.2-0.8-64.4,6.6-99.2,21c-2.5,1-5,2.1-7.4,3.2l3.5,0c1.5-0.6,3-1.3,4.5-1.9
			c71.3-29.5,139.9-27.7,153.1,4.1c3.8,9.2,2.6,19.9-2.9,31.2c-13.3,27.7-51.9,59-102.5,79.9c-4.9,2-9.8,3.9-14.7,5.7
			c-29.7,10.6-59,16-83.9,15.3c-14.1-0.4-25.9-2.7-35.2-6.9c-9.6-4.3-16.1-10.4-19.2-18.1c-2.9-6.9-2.9-14.7-0.3-23l-1.1-1.2
			c-3,9.1-2.9,17.4,0.1,24.8c3.3,8,10,14.4,20,18.8c9.5,4.3,21.5,6.6,35.8,7c1.5,0,3,0.1,4.5,0.1c25.1,0,54.2-5.8,83.6-16.7
			c3.7-1.4,7.4-2.8,11.1-4.4c34.8-14.4,65-34,85-55.3c7.9-8.4,13.9-16.6,17.8-24.6c1-1.9,1.8-3.8,2.5-5.7
			C276.1,43.2,276.4,34,273.1,25.9z"/>
		
			<radialGradient id="SVGID_00000054951193294800030960000009836873121906759578_" cx="-153.5094" cy="497.4806" r="1" gradientTransform="matrix(62.1212 -21.8182 -36.231 -103.1574 27668.4238 47996.9531)" gradientUnits="userSpaceOnUse">
			<stop  offset="0" style="stop-color:#171225"/>
			<stop  offset="1" style="stop-color:#171225;stop-opacity:0"/>
		</radialGradient>
		<path style="fill:url(#SVGID_00000054951193294800030960000009836873121906759578_);" d="M273.1,25.9c-3.3-8-10-14.4-20-18.8
			c-9.5-4.3-21.5-6.6-35.8-7c-29.2-0.8-64.4,6.6-99.2,21c-2.5,1-5,2.1-7.4,3.2l3.5,0c1.5-0.6,3-1.3,4.5-1.9
			c71.3-29.5,139.9-27.7,153.1,4.1c3.8,9.2,2.6,19.9-2.9,31.2c-13.3,27.7-51.9,59-102.5,79.9c-4.9,2-9.8,3.9-14.7,5.7
			c-29.7,10.6-59,16-83.9,15.3c-14.1-0.4-25.9-2.7-35.2-6.9c-9.6-4.3-16.1-10.4-19.2-18.1c-2.9-6.9-2.9-14.7-0.3-23l-1.1-1.2
			c-3,9.1-2.9,17.4,0.1,24.8c3.3,8,10,14.4,20,18.8c9.5,4.3,21.5,6.6,35.8,7c1.5,0,3,0.1,4.5,0.1c25.1,0,54.2-5.8,83.6-16.7
			c3.7-1.4,7.4-2.8,11.1-4.4c34.8-14.4,65-34,85-55.3c7.9-8.4,13.9-16.6,17.8-24.6c1-1.9,1.8-3.8,2.5-5.7
			C276.1,43.2,276.4,34,273.1,25.9z"/>
		<path class="st3" d="M273.1,25.9c-3.3-8-10-14.4-20-18.8c-9.5-4.3-21.5-6.6-35.8-7c-29.2-0.8-64.4,6.6-99.2,21
			c-2.5,1-5,2.1-7.4,3.2l3.5,0c1.5-0.6,3-1.3,4.5-1.9c71.3-29.5,139.9-27.7,153.1,4.1c3.8,9.2,2.6,19.9-2.9,31.2
			c-13.3,27.7-51.9,59-102.5,79.9c-4.9,2-9.8,3.9-14.7,5.7c-29.7,10.6-59,16-83.9,15.3c-14.1-0.4-25.9-2.7-35.2-6.9
			c-9.6-4.3-16.1-10.4-19.2-18.1c-2.9-6.9-2.9-14.7-0.3-23l-1.1-1.2c-3,9.1-2.9,17.4,0.1,24.8c3.3,8,10,14.4,20,18.8
			c9.5,4.3,21.5,6.6,35.8,7c1.5,0,3,0.1,4.5,0.1c25.1,0,54.2-5.8,83.6-16.7c3.7-1.4,7.4-2.8,11.1-4.4c34.8-14.4,65-34,85-55.3
			c7.9-8.4,13.9-16.6,17.8-24.6c1-1.9,1.8-3.8,2.5-5.7C276.1,43.2,276.4,34,273.1,25.9z"/>
	</g>
</g>
</svg>
