<?xml version="1.0" encoding="utf-8"?>
<!-- Generator: Adobe Illustrator 26.0.0, SVG Export Plug-In . SVG Version: 6.00 Build 0)  -->
<svg version="1.1" id="Camada_1" xmlns="http://www.w3.org/2000/svg" xmlns:xlink="http://www.w3.org/1999/xlink" x="0px" y="0px"
	 viewBox="0 0 266 160" style="enable-background:new 0 0 266 160;" xml:space="preserve">
<style type="text/css">
	.st0{fill:url(#SVGID_1_);filter:url(#Adobe_OpacityMaskFilter);}
	.st1{mask:url(#mask0_4_179_00000065784364288495554320000013408315334118312858_);}
	.st2{fill:#EA96C0;}
	.st3{fill:url(#SVGID_00000147915247717201350980000012098086940753467063_);}
	.st4{fill:#E75097;}
	.st5{fill:#FFFFFF;}
	.st6{fill:#E1D45D;}
	.st7{fill:url(#SVGID_00000062152802806996716110000016336159812188820613_);}
	.st8{fill:url(#SVGID_00000037663552518234453840000009833947921639961273_);}
	.st9{fill:url(#SVGID_00000001652369118239724780000009583079055888234145_);}
	.st10{fill:url(#SVGID_00000168093728089546652990000017511276889010444975_);}
	.st11{fill:url(#SVGID_00000148619918551561531170000011478520876952688281_);}
	.st12{fill:url(#SVGID_00000140693931093683566300000010996025763606493853_);}
	.st13{fill:url(#SVGID_00000082366905762646085990000006565108959461844613_);}
	.st14{fill-rule:evenodd;clip-rule:evenodd;fill:#E75097;}
	.st15{fill-rule:evenodd;clip-rule:evenodd;fill:#FFFFFF;}
	.st16{fill:url(#SVGID_00000039832152043046534040000013412698231500136846_);}
	.st17{fill:url(#SVGID_00000021819464032840629210000017150311500182704304_);}
	.st18{fill:url(#SVGID_00000116950897591294290910000010690742662944417967_);}
	.st19{fill:url(#SVGID_00000000912384361315572340000005277691395508250003_);}
	.st20{fill:url(#SVGID_00000179613742652544213300000000641273734066315434_);}
</style>
<g>
	<defs>
		<filter id="Adobe_OpacityMaskFilter" filterUnits="userSpaceOnUse" x="0.3" y="20.4" width="265.7" height="119.1">
			<feColorMatrix  type="matrix" values="1 0 0 0 0  0 1 0 0 0  0 0 1 0 0  0 0 0 1 0"/>
		</filter>
	</defs>
	
		<mask maskUnits="userSpaceOnUse" x="0.3" y="20.4" width="265.7" height="119.1" id="mask0_4_179_00000065784364288495554320000013408315334118312858_">
		
			<linearGradient id="SVGID_1_" gradientUnits="userSpaceOnUse" x1="133.0863" y1="85.3542" x2="133.0863" y2="24.561" gradientTransform="matrix(1 0 0 -1 0 160.11)">
			<stop  offset="0" style="stop-color:#D9D9D9"/>
			<stop  offset="1" style="stop-color:#D9D9D9;stop-opacity:0"/>
		</linearGradient>
		<rect x="0.3" y="17.1" class="st0" width="265.7" height="124.1"/>
	</mask>
	<g class="st1">
		<path class="st2" d="M232.6,33.3l-15-5.4l-61.8,0.2L145.1,24l-9.1,4L97.3,28L82,20.4H59.7L56.2,28H36.8L0.3,90.4l40.7,49.2h184.4
			L266,90.4L232.6,33.3L232.6,33.3z M224.4,137.3H41.9l-39-47.2l35.1-59.9h19.6l3.4-7.5h20.5l15.3,7.5l39.6,0.1l8.7-3.9l10.3,4
			l61.9-0.2l14,5l32.2,54.9L224.4,137.3L224.4,137.3z"/>
	</g>
	
		<linearGradient id="SVGID_00000072281087411868276520000001413495107148735873_" gradientUnits="userSpaceOnUse" x1="133.1309" y1="68.1986" x2="133.1309" y2="23.943" gradientTransform="matrix(1 0 0 -1 0 160.11)">
		<stop  offset="0" style="stop-color:#28203E"/>
		<stop  offset="1" style="stop-color:#121215;stop-opacity:0"/>
	</linearGradient>
	<path style="fill:url(#SVGID_00000072281087411868276520000001413495107148735873_);" d="M263.4,90.1l-39,47.2H41.9l-39-47.2
		l35.1-59.9h19.6l3.4-7.5h20.5l15.3,7.5l39.6,0.1l8.7-3.9l10.3,4l61.9-0.2l14,5L263.4,90.1z"/>
	<path class="st4" d="M263.4,90.1l-32.2-54.9l-14-5l-61.9,0.2l-10.3-4l-8.7,3.9l-39.6-0.1l-15.3-7.5H61l-3.4,7.5H37.9L2.9,90.1h23.5
		L44,104.2h28.6l4.3-14.1h18.6l4.3-19.9h4.2l5.7-2.7L108.5,81l15.8,9.1H263.4z"/>
	<path class="st5" d="M15.3,82.8h20l3.4-7.1h-8.9l6.3-11.8l10.3-4l3.2-6.7l-9.8,3.7l5.2-9.8l-3.1-5h5.7H55l2.2-4.5H41.7L15.3,82.8z"
		/>
	<path class="st5" d="M65.3,30L53.6,55.4l14.1,9l5.5,3.1l-8.4,4.9L59,88.8h-9.5l10.1-25.1l-7.6-4.8L37.8,90.1l8.5,6.7h21.4L78.3,62
		l-14.5-8.5l7.8-19.3h7l4.7,2.1l-6.7,3.4L72,52.4l7.8,4.5l7.1-23.5L80,30H65.3z"/>
	<path class="st5" d="M91.3,37.6L79.2,82.8H90l4.3-19.9h8.3l10.3-4.8l1.9-16.6l-7.9-3.8H91.3L91.3,37.6z M105.2,47.2l-1.7,9.8h-8
		l3.2-15h7.3l5.4,2.4L105.2,47.2L105.2,47.2z"/>
	<path class="st5" d="M119.3,37.6l-3.5,39.3l10.3,5.9h20l-2.7-41.3l-8.6-3.8H119.3L119.3,37.6z M134.9,51.5l0.3,24.2h-8.9l1.2-33.6
		h7.3l5.6,2.4L134.9,51.5L134.9,51.5z"/>
	<path class="st5" d="M149.3,41.4l4.2,41.3h10.8l-3.1-19.9h8.3l4,19.9h10.8l-4.8-19.1l-6.4-2.9L178,58l-5.2-20.4h-15.5L149.3,41.4z
		 M168.3,57.1h-8l-1.5-9.8l-6.3-2.8l5.5-2.4h7.3L168.3,57.1L168.3,57.1z"/>
	<path class="st5" d="M176.8,42.1h7.2l12.9,40.7h10.8L194.5,47l-7.6-5h12.8l-1.9-4.5h-22.3L176.8,42.1z"/>
	<path class="st5" d="M235.9,56.9l-9.1-15.6l-10.6-3.8h-15.5l7.7,17.9l22,9l6,11.3h-8.9l-5.8-12l-11.9-4.8l7.8,18l13.4,5.9h20
		L238.8,62l-22.1-8.5l-3.1-6.4l-8.1-5h13l5.5,10.3L235.9,56.9z"/>
	<path class="st6" d="M145.5,32.2c-1.1,1.2-2.4,2.3-3.8,3.3c1.5,1,3,2.2,4.4,3.4c1.2-1.3,2.4-2.4,3.8-3.4
		C148.3,34.4,146.8,33.3,145.5,32.2z"/>
	
		<linearGradient id="SVGID_00000181768849247344585650000001521893684234106004_" gradientUnits="userSpaceOnUse" x1="27.1004" y1="99.0947" x2="27.1004" y2="81.655" gradientTransform="matrix(1 0 0 -1 0 160.11)">
		<stop  offset="0" style="stop-color:#A9A9AD"/>
		<stop  offset="1" style="stop-color:#A9A9AD;stop-opacity:0"/>
	</linearGradient>
	<path style="fill:url(#SVGID_00000181768849247344585650000001521893684234106004_);" d="M27.5,77.2L33.9,65
		c-2.4,0.3-4.8,0.6-7.2,0.9l-9,15.4h16.6l2-4.1H27.5z"/>
	
		<linearGradient id="SVGID_00000027605550499713571490000010611336739676022408_" gradientUnits="userSpaceOnUse" x1="58.0619" y1="99.095" x2="58.0619" y2="81.6553" gradientTransform="matrix(1 0 0 -1 0 160.11)">
		<stop  offset="0" style="stop-color:#A9A9AD"/>
		<stop  offset="1" style="stop-color:#A9A9AD;stop-opacity:0"/>
	</linearGradient>
	<path style="fill:url(#SVGID_00000027605550499713571490000010611336739676022408_);" d="M74,61.2c-2.6,0.2-5.1,0.4-7.7,0.6
		l2.1,1.3l6.9,3.8l1.3-4.2L74,61.2z M66,73.3l-6.1,16.9H47.4l10.5-26l-2.5-1.6c-1.2,0.1-2.4,0.2-3.7,0.4L39.5,89.7l7.2,5.7h19.9
		l8.3-27.2L66,73.3z"/>
	
		<linearGradient id="SVGID_00000037690702094302725350000014411016055374165398_" gradientUnits="userSpaceOnUse" x1="93.673" y1="99.095" x2="93.673" y2="81.6553" gradientTransform="matrix(1 0 0 -1 0 160.11)">
		<stop  offset="0" style="stop-color:#A9A9AD"/>
		<stop  offset="1" style="stop-color:#A9A9AD;stop-opacity:0"/>
	</linearGradient>
	<path style="fill:url(#SVGID_00000037690702094302725350000014411016055374165398_);" d="M106.3,59.5l-4,1.9h-9.1l-4.3,19.9h-7.9
		l5.6-20.9C93.1,60,99.7,59.7,106.3,59.5z"/>
	
		<linearGradient id="SVGID_00000142893297060080251010000002247020842664588186_" gradientUnits="userSpaceOnUse" x1="130.9262" y1="99.0948" x2="130.9262" y2="81.655" gradientTransform="matrix(1 0 0 -1 0 160.11)">
		<stop  offset="0" style="stop-color:#A9A9AD"/>
		<stop  offset="1" style="stop-color:#A9A9AD;stop-opacity:0"/>
	</linearGradient>
	<path style="fill:url(#SVGID_00000142893297060080251010000002247020842664588186_);" d="M144.6,81.3h-18.2l-9.2-5.3l1.5-16.9
		c2.2,0,4.5-0.1,6.8-0.1l-0.6,18.2h11.7l-0.2-18.3c1,0,2.1,0,3.1,0c1.2,0,2.4,0,3.6,0L144.6,81.3z"/>
	
		<linearGradient id="SVGID_00000157307092003610174560000009381439311870909067_" gradientUnits="userSpaceOnUse" x1="167.483" y1="99.095" x2="167.483" y2="81.6552" gradientTransform="matrix(1 0 0 -1 0 160.11)">
		<stop  offset="0" style="stop-color:#A9A9AD"/>
		<stop  offset="1" style="stop-color:#A9A9AD;stop-opacity:0"/>
	</linearGradient>
	<path style="fill:url(#SVGID_00000157307092003610174560000009381439311870909067_);" d="M182.5,81.3h-7.9l-4-19.9h-11l3.1,19.9
		h-7.9L152.5,59c6.7,0.1,13.4,0.2,20,0.5l-2.6,1.5l8.4,3.8L182.5,81.3z"/>
	
		<linearGradient id="SVGID_00000111155483728793137480000001708283964155822475_" gradientUnits="userSpaceOnUse" x1="198.4645" y1="99.0951" x2="198.4645" y2="81.6553" gradientTransform="matrix(1 0 0 -1 0 160.11)">
		<stop  offset="0" style="stop-color:#A9A9AD"/>
		<stop  offset="1" style="stop-color:#A9A9AD;stop-opacity:0"/>
	</linearGradient>
	<path style="fill:url(#SVGID_00000111155483728793137480000001708283964155822475_);" d="M198,60.7c-2.3-0.1-4.5-0.3-6.8-0.4
		l6.6,21h7.8L198,60.7z"/>
	
		<linearGradient id="SVGID_00000064338335649046255660000000622694449731464071_" gradientUnits="userSpaceOnUse" x1="230.5517" y1="99.0947" x2="230.5517" y2="81.6549" gradientTransform="matrix(1 0 0 -1 0 160.11)">
		<stop  offset="0" style="stop-color:#A9A9AD"/>
		<stop  offset="1" style="stop-color:#A9A9AD;stop-opacity:0"/>
	</linearGradient>
	<path style="fill:url(#SVGID_00000064338335649046255660000000622694449731464071_);" d="M238.5,64.2c-2.3-0.3-4.6-0.5-7-0.8
		l7.3,13.7h-12.1l-6-12.3l-7.6-3.1c-0.2,0-0.3,0-0.5,0l6,14l12.6,5.6h17.2L238.5,64.2z"/>
	<path class="st14" d="M110.4,116v-3l-7.9,3.1h0v3.1h0l7.9,3.1v-3.1l-4-1.7L110.4,116z"/>
	<path class="st14" d="M155.9,122.2v-3l4-1.6l-4-1.6v-3l7.8,3.1h0v3.1h0L155.9,122.2L155.9,122.2z M152.5,108.5l-4.6,15.9h2.7
		l4.6-15.9H152.5z"/>
	<path class="st15" d="M121.9,112.4c0.8,0.9,1.2,2.1,1.1,3.4v6.8h-2.7v-6.1c0-0.7-0.2-1.4-0.6-1.9c-0.4-0.5-0.9-0.7-1.5-0.7
		c-1.7,0-2.6,1.3-2.6,3.8v4.9h-2.7v-11.1h2.7v1c0.9-0.9,2-1.4,3.3-1.3C120,111,121.1,111.5,121.9,112.4L121.9,112.4z"/>
	<path class="st15" d="M126.6,106.8v15.9h2.7v-15.9H126.6z"/>
	<path class="st15" d="M144.8,122.1h-2.3l-2.2-6.5l-2.3,6.5h-2.3l-3.8-11.1h2.9l2.2,6.7l2.2-6.7h2.1l2.2,6.7l2.2-6.7h2.9
		L144.8,122.1z"/>
	
		<linearGradient id="SVGID_00000106838031245493495100000001351818684437912243_" gradientUnits="userSpaceOnUse" x1="241.1946" y1="80.6646" x2="61.7325" y2="79.7436" gradientTransform="matrix(1 0 0 -1 0 160.11)">
		<stop  offset="0" style="stop-color:#796CAF"/>
		<stop  offset="0.5" style="stop-color:#69BEA2"/>
		<stop  offset="1" style="stop-color:#E1D45D"/>
	</linearGradient>
	<path style="fill:url(#SVGID_00000106838031245493495100000001351818684437912243_);" d="M11.4,25.9c3.1-8,9.4-14.4,18.6-18.8
		c8.9-4.3,20.1-6.6,33.4-7c27.2-0.8,60.1,6.6,92.5,21c2.3,1,4.6,2.1,6.9,3.2l-3.2,0c-1.4-0.6-2.8-1.3-4.2-1.9
		C88.9-7.1,24.9-5.3,12.6,26.5c-3.6,9.2-2.4,19.9,2.7,31.2c12.4,27.7,48.4,59,95.6,79.9c4.6,2,9.1,3.9,13.7,5.7
		c27.7,10.6,55,16,78.2,15.3c13.1-0.4,24.2-2.7,32.9-6.9c8.9-4.3,15-10.4,17.9-18.1c2.7-6.9,2.7-14.7,0.3-23l1-1.2
		c2.8,9.1,2.7,17.4-0.1,24.8c-3.1,8-9.4,14.4-18.6,18.8c-8.9,4.3-20.1,6.6-33.4,7c-1.4,0-2.8,0.1-4.2,0.1
		c-23.4,0-50.6-5.8-77.9-16.7c-3.5-1.4-6.9-2.8-10.4-4.4c-32.4-14.4-60.6-34-79.3-55.3C23.8,75.3,18.2,67,14.5,59.1
		c-0.9-1.9-1.7-3.8-2.3-5.7C8.6,43.2,8.3,34,11.4,25.9z"/>
	
		<radialGradient id="SVGID_00000067237801862778761320000006676345338515233203_" cx="-162.1255" cy="499.6545" r="1" gradientTransform="matrix(116.1165 35.1515 54.4213 -206.8176 -8234.9219 109182.5469)" gradientUnits="userSpaceOnUse">
		<stop  offset="0" style="stop-color:#171326"/>
		<stop  offset="1" style="stop-color:#171326;stop-opacity:0"/>
	</radialGradient>
	<path style="fill:url(#SVGID_00000067237801862778761320000006676345338515233203_);" d="M11.4,25.9c3.1-8,9.4-14.4,18.6-18.8
		c8.9-4.3,20.1-6.6,33.4-7c27.2-0.8,60.1,6.6,92.5,21c2.3,1,4.6,2.1,6.9,3.2l-3.2,0c-1.4-0.6-2.8-1.3-4.2-1.9
		C88.9-7.1,24.9-5.3,12.6,26.5c-3.6,9.2-2.4,19.9,2.7,31.2c12.4,27.7,48.4,59,95.6,79.9c4.6,2,9.1,3.9,13.7,5.7
		c27.7,10.6,55,16,78.2,15.3c13.1-0.4,24.2-2.7,32.9-6.9c8.9-4.3,15-10.4,17.9-18.1c2.7-6.9,2.7-14.7,0.3-23l1-1.2
		c2.8,9.1,2.7,17.4-0.1,24.8c-3.1,8-9.4,14.4-18.6,18.8c-8.9,4.3-20.1,6.6-33.4,7c-1.4,0-2.8,0.1-4.2,0.1
		c-23.4,0-50.6-5.8-77.9-16.7c-3.5-1.4-6.9-2.8-10.4-4.4c-32.4-14.4-60.6-34-79.3-55.3C23.8,75.3,18.2,67,14.5,59.1
		c-0.9-1.9-1.7-3.8-2.3-5.7C8.6,43.2,8.3,34,11.4,25.9z"/>
	
		<radialGradient id="SVGID_00000029015948560848927340000004088057461504968587_" cx="-173.5077" cy="506.3019" r="1" gradientTransform="matrix(-25.0031 -11.3638 -17.5933 44.5338 4731.7246 -24494.2383)" gradientUnits="userSpaceOnUse">
		<stop  offset="0" style="stop-color:#261C44"/>
		<stop  offset="1" style="stop-color:#261C44;stop-opacity:0"/>
	</radialGradient>
	<path style="fill:url(#SVGID_00000029015948560848927340000004088057461504968587_);" d="M11.4,25.9c3.1-8,9.4-14.4,18.6-18.8
		c8.9-4.3,20.1-6.6,33.4-7c27.2-0.8,60.1,6.6,92.5,21c2.3,1,4.6,2.1,6.9,3.2l-3.2,0c-1.4-0.6-2.8-1.3-4.2-1.9
		C88.9-7.1,24.9-5.3,12.6,26.5c-3.6,9.2-2.4,19.9,2.7,31.2c12.4,27.7,48.4,59,95.6,79.9c4.6,2,9.1,3.9,13.7,5.7
		c27.7,10.6,55,16,78.2,15.3c13.1-0.4,24.2-2.7,32.9-6.9c8.9-4.3,15-10.4,17.9-18.1c2.7-6.9,2.7-14.7,0.3-23l1-1.2
		c2.8,9.1,2.7,17.4-0.1,24.8c-3.1,8-9.4,14.4-18.6,18.8c-8.9,4.3-20.1,6.6-33.4,7c-1.4,0-2.8,0.1-4.2,0.1
		c-23.4,0-50.6-5.8-77.9-16.7c-3.5-1.4-6.9-2.8-10.4-4.4c-32.4-14.4-60.6-34-79.3-55.3C23.8,75.3,18.2,67,14.5,59.1
		c-0.9-1.9-1.7-3.8-2.3-5.7C8.6,43.2,8.3,34,11.4,25.9z"/>
	<path class="st2" d="M11.4,25.9c3.1-8,9.4-14.4,18.6-18.8c8.9-4.3,20.1-6.6,33.4-7c27.2-0.8,60.1,6.6,92.5,21
		c2.3,1,4.6,2.1,6.9,3.2l-3.2,0c-1.4-0.6-2.8-1.3-4.2-1.9C88.9-7.1,24.9-5.3,12.6,26.5c-3.6,9.2-2.4,19.9,2.7,31.2
		c12.4,27.7,48.4,59,95.6,79.9c4.6,2,9.1,3.9,13.7,5.7c27.7,10.6,55,16,78.2,15.3c13.1-0.4,24.2-2.7,32.9-6.9
		c8.9-4.3,15-10.4,17.9-18.1c2.7-6.9,2.7-14.7,0.3-23l1-1.2c2.8,9.1,2.7,17.4-0.1,24.8c-3.1,8-9.4,14.4-18.6,18.8
		c-8.9,4.3-20.1,6.6-33.4,7c-1.4,0-2.8,0.1-4.2,0.1c-23.4,0-50.6-5.8-77.9-16.7c-3.5-1.4-6.9-2.8-10.4-4.4
		c-32.4-14.4-60.6-34-79.3-55.3C23.8,75.3,18.2,67,14.5,59.1c-0.9-1.9-1.7-3.8-2.3-5.7C8.6,43.2,8.3,34,11.4,25.9z"/>
	
		<linearGradient id="SVGID_00000070808102017808187690000003723730478671578279_" gradientUnits="userSpaceOnUse" x1="112.9864" y1="131.1781" x2="155.7501" y2="22.7627" gradientTransform="matrix(1 0 0 -1 0 160.11)">
		<stop  offset="0" style="stop-color:#796CAF"/>
		<stop  offset="0.5" style="stop-color:#69BEA2"/>
		<stop  offset="1" style="stop-color:#E1D45D"/>
	</linearGradient>
	<path style="fill:url(#SVGID_00000070808102017808187690000003723730478671578279_);" d="M254.8,25.9c-3.1-8-9.4-14.4-18.6-18.8
		c-8.9-4.3-20.1-6.6-33.4-7c-27.2-0.8-60.1,6.6-92.5,21c-2.3,1-4.6,2.1-6.9,3.2l3.2,0c1.4-0.6,2.8-1.3,4.2-1.9
		c66.4-29.5,130.5-27.7,142.7,4.1c3.6,9.2,2.4,19.9-2.7,31.2c-12.4,27.7-48.4,59-95.6,79.9c-4.6,2-9.1,3.9-13.7,5.7
		c-27.7,10.6-55,16-78.2,15.3c-13.1-0.4-24.2-2.7-32.9-6.9c-8.9-4.3-15-10.4-17.9-18.1c-2.7-6.9-2.7-14.7-0.3-23l-1-1.2
		c-2.8,9.1-2.7,17.4,0.1,24.8c3.1,8,9.4,14.4,18.6,18.8c8.9,4.3,20.1,6.6,33.4,7c1.4,0,2.8,0.1,4.2,0.1c23.4,0,50.6-5.8,77.9-16.7
		c3.5-1.4,6.9-2.8,10.4-4.4c32.4-14.4,60.6-34,79.3-55.3c7.3-8.4,12.9-16.6,16.6-24.6c0.9-1.9,1.7-3.8,2.3-5.7
		C257.7,43.2,257.9,34,254.8,25.9z"/>
	
		<radialGradient id="SVGID_00000116213827399421714370000010025398224840771717_" cx="-163.512" cy="497.5605" r="1" gradientTransform="matrix(57.9169 -21.8182 -33.7789 -103.1575 26378.1504 47787.0039)" gradientUnits="userSpaceOnUse">
		<stop  offset="0" style="stop-color:#181325"/>
		<stop  offset="1" style="stop-color:#181325;stop-opacity:0"/>
	</radialGradient>
	<path style="fill:url(#SVGID_00000116213827399421714370000010025398224840771717_);" d="M254.8,25.9c-3.1-8-9.4-14.4-18.6-18.8
		c-8.9-4.3-20.1-6.6-33.4-7c-27.2-0.8-60.1,6.6-92.5,21c-2.3,1-4.6,2.1-6.9,3.2l3.2,0c1.4-0.6,2.8-1.3,4.2-1.9
		c66.4-29.5,130.5-27.7,142.7,4.1c3.6,9.2,2.4,19.9-2.7,31.2c-12.4,27.7-48.4,59-95.6,79.9c-4.6,2-9.1,3.9-13.7,5.7
		c-27.7,10.6-55,16-78.2,15.3c-13.1-0.4-24.2-2.7-32.9-6.9c-8.9-4.3-15-10.4-17.9-18.1c-2.7-6.9-2.7-14.7-0.3-23l-1-1.2
		c-2.8,9.1-2.7,17.4,0.1,24.8c3.1,8,9.4,14.4,18.6,18.8c8.9,4.3,20.1,6.6,33.4,7c1.4,0,2.8,0.1,4.2,0.1c23.4,0,50.6-5.8,77.9-16.7
		c3.5-1.4,6.9-2.8,10.4-4.4c32.4-14.4,60.6-34,79.3-55.3c7.3-8.4,12.9-16.6,16.6-24.6c0.9-1.9,1.7-3.8,2.3-5.7
		C257.7,43.2,257.9,34,254.8,25.9z"/>
	<path class="st2" d="M254.8,25.9c-3.1-8-9.4-14.4-18.6-18.8c-8.9-4.3-20.1-6.6-33.4-7c-27.2-0.8-60.1,6.6-92.5,21
		c-2.3,1-4.6,2.1-6.9,3.2l3.2,0c1.4-0.6,2.8-1.3,4.2-1.9c66.4-29.5,130.5-27.7,142.7,4.1c3.6,9.2,2.4,19.9-2.7,31.2
		c-12.4,27.7-48.4,59-95.6,79.9c-4.6,2-9.1,3.9-13.7,5.7c-27.7,10.6-55,16-78.2,15.3c-13.1-0.4-24.2-2.7-32.9-6.9
		c-8.9-4.3-15-10.4-17.9-18.1c-2.7-6.9-2.7-14.7-0.3-23l-1-1.2c-2.8,9.1-2.7,17.4,0.1,24.8c3.1,8,9.4,14.4,18.6,18.8
		c8.9,4.3,20.1,6.6,33.4,7c1.4,0,2.8,0.1,4.2,0.1c23.4,0,50.6-5.8,77.9-16.7c3.5-1.4,6.9-2.8,10.4-4.4c32.4-14.4,60.6-34,79.3-55.3
		c7.3-8.4,12.9-16.6,16.6-24.6c0.9-1.9,1.7-3.8,2.3-5.7C257.7,43.2,257.9,34,254.8,25.9z"/>
</g>
</svg>
