<?xml version="1.0" encoding="utf-8"?>
<!-- Generator: Adobe Illustrator 26.0.0, SVG Export Plug-In . SVG Version: 6.00 Build 0)  -->
<svg version="1.1" id="Camada_1" xmlns="http://www.w3.org/2000/svg" xmlns:xlink="http://www.w3.org/1999/xlink" x="0px" y="0px"
	 viewBox="0 0 286 160" style="enable-background:new 0 0 286 160;" xml:space="preserve">
<style type="text/css">
	.st0{fill:url(#SVGID_1_);filter:url(#Adobe_OpacityMaskFilter);}
	.st1{mask:url(#mask0_4_179_00000165212634211560886950000016138168085496241806_);}
	.st2{fill:#EA96C1;}
	.st3{fill:url(#SVGID_00000132802180329378582460000018445289389123004597_);}
	.st4{fill:#E84F96;}
	.st5{fill:#FFFFFF;}
	.st6{fill:#E2D45C;}
	.st7{fill:url(#SVGID_00000059275458374812964290000004502523568997096380_);}
	.st8{fill:url(#SVGID_00000017499339410802624680000004752533418233848715_);}
	.st9{fill:url(#SVGID_00000008126117298192646240000006228017964277447553_);}
	.st10{fill:url(#SVGID_00000070824398520578268570000001408657127736412346_);}
	.st11{fill:url(#SVGID_00000038392557774285779600000017578935082222160770_);}
	.st12{fill:url(#SVGID_00000016786327349320068620000000337723200789581969_);}
	.st13{fill:url(#SVGID_00000183228360210337941210000016528357985873729963_);}
	.st14{fill-rule:evenodd;clip-rule:evenodd;fill:#E84F96;}
	.st15{fill-rule:evenodd;clip-rule:evenodd;fill:#FFFFFF;}
	.st16{fill:url(#SVGID_00000105408157624819153220000017182632815193709969_);}
	.st17{fill:url(#SVGID_00000152259376406887926760000017638495467638234009_);}
	.st18{fill:url(#SVGID_00000180343338392306530920000014187768483874830228_);}
	.st19{fill:url(#SVGID_00000145776910886673517320000009862114112405958075_);}
	.st20{fill:url(#SVGID_00000070080634319413115030000015482408521800675223_);}
</style>
<g>
	<defs>
		<filter id="Adobe_OpacityMaskFilter" filterUnits="userSpaceOnUse" x="74.9" y="54.3" width="126.1" height="46.9">
			<feColorMatrix  type="matrix" values="1 0 0 0 0  0 1 0 0 0  0 0 1 0 0  0 0 0 1 0"/>
		</filter>
	</defs>
	
		<mask maskUnits="userSpaceOnUse" x="74.9" y="54.3" width="126.1" height="46.9" id="mask0_4_179_00000165212634211560886950000016138168085496241806_">
		
			<linearGradient id="SVGID_1_" gradientUnits="userSpaceOnUse" x1="137.9988" y1="82.4443" x2="137.9988" y2="58.4906" gradientTransform="matrix(1 0 0 -1 0 158.11)">
			<stop  offset="0" style="stop-color:#D9D9D9"/>
			<stop  offset="1" style="stop-color:#D9D9D9;stop-opacity:0"/>
		</linearGradient>
		<rect x="74.9" y="52.9" class="st0" width="126.1" height="48.9"/>
	</mask>
	<g class="st1">
		<path class="st2" d="M185.2,59.3l-7.1-2.1l-29.4,0.1l-5.1-1.6l-4.3,1.6l-18.4,0l-7.3-3h-10.6l-1.6,3h-9.2L74.9,81.8l19.3,19.4
			h87.5l19.3-19.4L185.2,59.3L185.2,59.3z M181.3,100.3H94.7L76.2,81.7l16.7-23.6h9.3l1.6-3h9.8l7.3,3l18.8,0l4.1-1.5l4.9,1.6
			l29.4-0.1l6.6,2l15.3,21.6L181.3,100.3L181.3,100.3z"/>
	</g>
	
		<linearGradient id="SVGID_00000098182163138607857280000017522788039172973971_" gradientUnits="userSpaceOnUse" x1="138.02" y1="75.6847" x2="138.02" y2="58.2471" gradientTransform="matrix(1 0 0 -1 0 158.11)">
		<stop  offset="0" style="stop-color:#28203E"/>
		<stop  offset="1" style="stop-color:#121214;stop-opacity:0"/>
	</linearGradient>
	<path style="fill:url(#SVGID_00000098182163138607857280000017522788039172973971_);" d="M199.9,81.7l-18.5,18.6H94.7L76.2,81.7
		l16.7-23.6h9.3l1.6-3h9.8l7.3,3l18.8,0l4.1-1.5l4.9,1.6l29.4-0.1l6.6,2L199.9,81.7z"/>
	<path class="st4" d="M199.9,81.7l-15.3-21.6l-6.6-2l-29.4,0.1l-4.9-1.6l-4.1,1.5l-18.8,0l-7.3-3h-9.8l-1.6,3h-9.3L76.2,81.7h11.1
		l8.4,5.6h13.6l2-5.6h8.8l2-7.9h2l2.7-1.1l-0.6,5.3l7.5,3.6H199.9z"/>
	<path class="st5" d="M82.1,78.8h9.5l1.6-2.8H89l3-4.6l4.9-1.6l1.5-2.6l-4.6,1.4l2.5-3.9l-1.5-2h2.7h3.5l1-1.8h-7.4L82.1,78.8z"/>
	<path class="st5" d="M105.8,58l-5.5,10l6.7,3.5l2.6,1.2l-4,1.9l-2.8,6.5h-4.5l4.8-9.9l-3.6-1.9l-6.8,12.3l4,2.7h10.2l5-13.7
		l-6.9-3.4l3.7-7.6h3.3l2.3,0.8l-3.2,1.3l-2.2,5l3.7,1.8l3.4-9.2l-3.3-1.4H105.8z"/>
	<path class="st5" d="M118.2,61l-5.7,17.8h5.1l2-7.9h3.9l4.9-1.9l0.9-6.5l-3.8-1.5H118.2L118.2,61z M124.8,64.8l-0.8,3.9h-3.8
		l1.5-5.9h3.5l2.6,0.9L124.8,64.8L124.8,64.8z"/>
	<path class="st5" d="M131.4,61l-1.7,15.5l4.9,2.3h9.5l-1.3-16.3l-4.1-1.5H131.4L131.4,61z M138.9,66.5L139,76h-4.2l0.6-13.2h3.5
		l2.7,0.9L138.9,66.5L138.9,66.5z"/>
	<path class="st5" d="M145.7,62.5l2,16.3h5.1l-1.5-7.9h3.9l1.9,7.9h5.1l-2.3-7.5l-3-1.1l2.3-1.1l-2.5-8.1h-7.4L145.7,62.5z
		 M154.7,68.7h-3.8l-0.7-3.9l-3-1.1l2.6-0.9h3.5L154.7,68.7L154.7,68.7z"/>
	<path class="st5" d="M158.8,62.8h3.4l6.1,16h5.1l-6.3-14.1l-3.6-2h6.1l-0.9-1.8h-10.6L158.8,62.8z"/>
	<path class="st5" d="M186.8,68.6l-4.3-6.1l-5-1.5h-7.4l3.7,7l10.5,3.5l2.9,4.5h-4.2l-2.8-4.7l-5.6-1.9l3.7,7.1l6.3,2.3h9.5
		l-5.8-8.2l-10.5-3.4l-1.5-2.5l-3.9-2h6.2l2.6,4.1L186.8,68.6z"/>
	<path class="st6" d="M143.9,58.9c-0.5,0.5-1.1,0.9-1.8,1.3c0.7,0.4,1.4,0.8,2.1,1.3c0.6-0.5,1.2-1,1.8-1.3
		C145.2,59.8,144.5,59.3,143.9,58.9z"/>
	
		<linearGradient id="SVGID_00000017508910928728787570000012661230443063303312_" gradientUnits="userSpaceOnUse" x1="87.6877" y1="87.8584" x2="87.6877" y2="80.9868" gradientTransform="matrix(1 0 0 -1 0 158.11)">
		<stop  offset="0" style="stop-color:#A9A9AD"/>
		<stop  offset="1" style="stop-color:#A9A9AD;stop-opacity:0"/>
	</linearGradient>
	<path style="fill:url(#SVGID_00000017508910928728787570000012661230443063303312_);" d="M87.9,76.6l3.1-4.8
		c-1.1,0.1-2.3,0.2-3.4,0.4l-4.3,6.1h7.9l0.9-1.6H87.9z"/>
	
		<linearGradient id="SVGID_00000037682610684108459300000000127549621814704017_" gradientUnits="userSpaceOnUse" x1="102.385" y1="87.8585" x2="102.385" y2="80.9869" gradientTransform="matrix(1 0 0 -1 0 158.11)">
		<stop  offset="0" style="stop-color:#A9A9AD"/>
		<stop  offset="1" style="stop-color:#A9A9AD;stop-opacity:0"/>
	</linearGradient>
	<path style="fill:url(#SVGID_00000037682610684108459300000000127549621814704017_);" d="M109.9,70.3c-1.2,0.1-2.4,0.1-3.6,0.2
		l1,0.5l3.3,1.5l0.6-1.7L109.9,70.3z M106.1,75.1l-2.9,6.7h-5.9l5-10.2l-1.2-0.6c-0.6,0-1.2,0.1-1.7,0.1l-5.8,10.5l3.4,2.3h9.5
		l3.9-10.7L106.1,75.1z"/>
	
		<linearGradient id="SVGID_00000109733970040421945810000010342638001934107781_" gradientUnits="userSpaceOnUse" x1="119.2895" y1="87.8585" x2="119.2895" y2="80.9869" gradientTransform="matrix(1 0 0 -1 0 158.11)">
		<stop  offset="0" style="stop-color:#A9A9AD"/>
		<stop  offset="1" style="stop-color:#A9A9AD;stop-opacity:0"/>
	</linearGradient>
	<path style="fill:url(#SVGID_00000109733970040421945810000010342638001934107781_);" d="M125.3,69.6l-1.9,0.7h-4.3l-2,7.9h-3.7
		L116,70C119,69.8,122.1,69.7,125.3,69.6z"/>
	
		<linearGradient id="SVGID_00000017512299490642271020000003705016898393752456_" gradientUnits="userSpaceOnUse" x1="136.9734" y1="87.8584" x2="136.9734" y2="80.9868" gradientTransform="matrix(1 0 0 -1 0 158.11)">
		<stop  offset="0" style="stop-color:#A9A9AD"/>
		<stop  offset="1" style="stop-color:#A9A9AD;stop-opacity:0"/>
	</linearGradient>
	<path style="fill:url(#SVGID_00000017512299490642271020000003705016898393752456_);" d="M143.5,78.2h-8.6l-4.3-2.1l0.7-6.7
		c1.1,0,2.1,0,3.2,0l-0.3,7.2h5.6l-0.1-7.2c0.5,0,1,0,1.5,0c0.6,0,1.2,0,1.7,0L143.5,78.2z"/>
	
		<linearGradient id="SVGID_00000181780685229079226630000000732330304547618746_" gradientUnits="userSpaceOnUse" x1="154.3268" y1="87.8585" x2="154.3268" y2="80.9868" gradientTransform="matrix(1 0 0 -1 0 158.11)">
		<stop  offset="0" style="stop-color:#A9A9AD"/>
		<stop  offset="1" style="stop-color:#A9A9AD;stop-opacity:0"/>
	</linearGradient>
	<path style="fill:url(#SVGID_00000181780685229079226630000000732330304547618746_);" d="M161.4,78.2h-3.7l-1.9-7.9h-5.2l1.5,7.9
		h-3.8l-1.1-8.8c3.2,0,6.4,0.1,9.5,0.2l-1.2,0.6l4,1.5L161.4,78.2z"/>
	
		<linearGradient id="SVGID_00000146460766753094560470000004575840053668174247_" gradientUnits="userSpaceOnUse" x1="169.0336" y1="87.8585" x2="169.0336" y2="80.9869" gradientTransform="matrix(1 0 0 -1 0 158.11)">
		<stop  offset="0" style="stop-color:#A9A9AD"/>
		<stop  offset="1" style="stop-color:#A9A9AD;stop-opacity:0"/>
	</linearGradient>
	<path style="fill:url(#SVGID_00000146460766753094560470000004575840053668174247_);" d="M168.8,70.1c-1.1-0.1-2.1-0.1-3.2-0.2
		l3.2,8.3h3.7L168.8,70.1z"/>
	
		<linearGradient id="SVGID_00000089540875131472036190000006886687310679280258_" gradientUnits="userSpaceOnUse" x1="184.2654" y1="87.8584" x2="184.2654" y2="80.9867" gradientTransform="matrix(1 0 0 -1 0 158.11)">
		<stop  offset="0" style="stop-color:#A9A9AD"/>
		<stop  offset="1" style="stop-color:#A9A9AD;stop-opacity:0"/>
	</linearGradient>
	<path style="fill:url(#SVGID_00000089540875131472036190000006886687310679280258_);" d="M188,71.5c-1.1-0.1-2.2-0.2-3.3-0.3
		l3.5,5.4h-5.7l-2.8-4.8l-3.6-1.2c-0.1,0-0.2,0-0.2,0l2.9,5.5l6,2.2h8.2L188,71.5z"/>
	<path class="st14" d="M127.2,91.9v-1.2l-3.7,1.2h0v1.2h0l3.7,1.2v-1.2l-1.9-0.7L127.2,91.9z"/>
	<path class="st14" d="M148.8,94.4v-1.2l1.9-0.6l-1.9-0.6v-1.2l3.7,1.2h0v1.2h0L148.8,94.4L148.8,94.4z M147.2,89l-2.2,6.3h1.3
		l2.2-6.3H147.2z"/>
	<path class="st15" d="M132.7,90.5c0.4,0.4,0.6,0.8,0.5,1.3v2.7h-1.3v-2.4c0-0.3-0.1-0.5-0.3-0.7c-0.2-0.2-0.4-0.3-0.7-0.3
		c-0.8,0-1.2,0.5-1.2,1.5v1.9h-1.3v-4.4h1.3v0.4c0.4-0.4,1-0.5,1.5-0.5C131.8,90,132.3,90.1,132.7,90.5L132.7,90.5z"/>
	<path class="st15" d="M134.9,88.3v6.3h1.3v-6.3H134.9z"/>
	<path class="st15" d="M143.5,94.3h-1.1l-1.1-2.6l-1.1,2.6h-1.1l-1.8-4.4h1.4l1,2.6l1.1-2.6h1l1.1,2.6l1-2.6h1.4L143.5,94.3z"/>
	
		<linearGradient id="SVGID_00000108291314097598068790000009990197108929592232_" gradientUnits="userSpaceOnUse" x1="189.3327" y1="80.6414" x2="104.1174" y2="80.204" gradientTransform="matrix(1 0 0 -1 0 158.11)">
		<stop  offset="0" style="stop-color:#996DFF"/>
		<stop  offset="0.5" style="stop-color:#35E8B3"/>
		<stop  offset="1" style="stop-color:#E2D45C"/>
	</linearGradient>
	<path style="fill:url(#SVGID_00000108291314097598068790000009990197108929592232_);" d="M80.2,56.4c1.5-3.2,4.4-5.7,8.8-7.4
		c4.2-1.7,9.5-2.6,15.8-2.8c12.9-0.3,28.5,2.6,43.9,8.3c1.1,0.4,2.2,0.8,3.3,1.3l-1.5,0c-0.7-0.3-1.3-0.5-2-0.8
		C117,43.4,86.6,44.1,80.8,56.6c-1.7,3.6-1.1,7.8,1.3,12.3c5.9,10.9,23,23.2,45.4,31.5c2.2,0.8,4.3,1.5,6.5,2.2
		c13.1,4.2,26.1,6.3,37.1,6c6.2-0.2,11.5-1.1,15.6-2.7c4.2-1.7,7.1-4.1,8.5-7.1c1.3-2.7,1.3-5.8,0.2-9.1l0.5-0.5
		c1.3,3.6,1.3,6.9-0.1,9.8c-1.5,3.2-4.4,5.7-8.8,7.4c-4.2,1.7-9.5,2.6-15.8,2.8c-0.7,0-1.3,0-2,0c-11.1,0-24-2.3-37-6.6
		c-1.6-0.5-3.3-1.1-4.9-1.7c-15.4-5.7-28.8-13.4-37.6-21.8c-3.5-3.3-6.1-6.5-7.9-9.7c-0.4-0.8-0.8-1.5-1.1-2.2
		C78.9,63.2,78.8,59.6,80.2,56.4z"/>
	
		<radialGradient id="SVGID_00000117667684722941124410000005875443230950031543_" cx="-154.316" cy="498.6875" r="1" gradientTransform="matrix(55.1201 13.8504 25.8336 -81.4905 -4239.7417 42879.4453)" gradientUnits="userSpaceOnUse">
		<stop  offset="0" style="stop-color:#171226"/>
		<stop  offset="1" style="stop-color:#171226;stop-opacity:0"/>
	</radialGradient>
	<path style="fill:url(#SVGID_00000117667684722941124410000005875443230950031543_);" d="M80.2,56.4c1.5-3.2,4.4-5.7,8.8-7.4
		c4.2-1.7,9.5-2.6,15.8-2.8c12.9-0.3,28.5,2.6,43.9,8.3c1.1,0.4,2.2,0.8,3.3,1.3l-1.5,0c-0.7-0.3-1.3-0.5-2-0.8
		C117,43.4,86.6,44.1,80.8,56.6c-1.7,3.6-1.1,7.8,1.3,12.3c5.9,10.9,23,23.2,45.4,31.5c2.2,0.8,4.3,1.5,6.5,2.2
		c13.1,4.2,26.1,6.3,37.1,6c6.2-0.2,11.5-1.1,15.6-2.7c4.2-1.7,7.1-4.1,8.5-7.1c1.3-2.7,1.3-5.8,0.2-9.1l0.5-0.5
		c1.3,3.6,1.3,6.9-0.1,9.8c-1.5,3.2-4.4,5.7-8.8,7.4c-4.2,1.7-9.5,2.6-15.8,2.8c-0.7,0-1.3,0-2,0c-11.1,0-24-2.3-37-6.6
		c-1.6-0.5-3.3-1.1-4.9-1.7c-15.4-5.7-28.8-13.4-37.6-21.8c-3.5-3.3-6.1-6.5-7.9-9.7c-0.4-0.8-0.8-1.5-1.1-2.2
		C78.9,63.2,78.8,59.6,80.2,56.4z"/>
	
		<radialGradient id="SVGID_00000058567702354552028840000009119675541218638517_" cx="-159.2292" cy="505.5562" r="1" gradientTransform="matrix(-11.8689 -4.4776 -8.3515 17.5472 2484.1992 -9528.0117)" gradientUnits="userSpaceOnUse">
		<stop  offset="0" style="stop-color:#261945"/>
		<stop  offset="1" style="stop-color:#261945;stop-opacity:0"/>
	</radialGradient>
	<path style="fill:url(#SVGID_00000058567702354552028840000009119675541218638517_);" d="M80.2,56.4c1.5-3.2,4.4-5.7,8.8-7.4
		c4.2-1.7,9.5-2.6,15.8-2.8c12.9-0.3,28.5,2.6,43.9,8.3c1.1,0.4,2.2,0.8,3.3,1.3l-1.5,0c-0.7-0.3-1.3-0.5-2-0.8
		C117,43.4,86.6,44.1,80.8,56.6c-1.7,3.6-1.1,7.8,1.3,12.3c5.9,10.9,23,23.2,45.4,31.5c2.2,0.8,4.3,1.5,6.5,2.2
		c13.1,4.2,26.1,6.3,37.1,6c6.2-0.2,11.5-1.1,15.6-2.7c4.2-1.7,7.1-4.1,8.5-7.1c1.3-2.7,1.3-5.8,0.2-9.1l0.5-0.5
		c1.3,3.6,1.3,6.9-0.1,9.8c-1.5,3.2-4.4,5.7-8.8,7.4c-4.2,1.7-9.5,2.6-15.8,2.8c-0.7,0-1.3,0-2,0c-11.1,0-24-2.3-37-6.6
		c-1.6-0.5-3.3-1.1-4.9-1.7c-15.4-5.7-28.8-13.4-37.6-21.8c-3.5-3.3-6.1-6.5-7.9-9.7c-0.4-0.8-0.8-1.5-1.1-2.2
		C78.9,63.2,78.8,59.6,80.2,56.4z"/>
	<path class="st2" d="M80.2,56.4c1.5-3.2,4.4-5.7,8.8-7.4c4.2-1.7,9.5-2.6,15.8-2.8c12.9-0.3,28.5,2.6,43.9,8.3
		c1.1,0.4,2.2,0.8,3.3,1.3l-1.5,0c-0.7-0.3-1.3-0.5-2-0.8C117,43.4,86.6,44.1,80.8,56.6c-1.7,3.6-1.1,7.8,1.3,12.3
		c5.9,10.9,23,23.2,45.4,31.5c2.2,0.8,4.3,1.5,6.5,2.2c13.1,4.2,26.1,6.3,37.1,6c6.2-0.2,11.5-1.1,15.6-2.7c4.2-1.7,7.1-4.1,8.5-7.1
		c1.3-2.7,1.3-5.8,0.2-9.1l0.5-0.5c1.3,3.6,1.3,6.9-0.1,9.8c-1.5,3.2-4.4,5.7-8.8,7.4c-4.2,1.7-9.5,2.6-15.8,2.8c-0.7,0-1.3,0-2,0
		c-11.1,0-24-2.3-37-6.6c-1.6-0.5-3.3-1.1-4.9-1.7c-15.4-5.7-28.8-13.4-37.6-21.8c-3.5-3.3-6.1-6.5-7.9-9.7
		c-0.4-0.8-0.8-1.5-1.1-2.2C78.9,63.2,78.8,59.6,80.2,56.4z"/>
	
		<linearGradient id="SVGID_00000106131966743798958610000008483987008880920704_" gradientUnits="userSpaceOnUse" x1="129.8888" y1="100.9911" x2="147.1501" y2="57.2298" gradientTransform="matrix(1 0 0 -1 0 158.11)">
		<stop  offset="0" style="stop-color:#996DFF"/>
		<stop  offset="0.5" style="stop-color:#35E8B3"/>
		<stop  offset="1" style="stop-color:#E2D45C"/>
	</linearGradient>
	<path style="fill:url(#SVGID_00000106131966743798958610000008483987008880920704_);" d="M195.8,56.4c-1.5-3.2-4.4-5.7-8.8-7.4
		c-4.2-1.7-9.5-2.6-15.8-2.8c-12.9-0.3-28.5,2.6-43.9,8.3c-1.1,0.4-2.2,0.8-3.3,1.3l1.5,0c0.7-0.3,1.3-0.5,2-0.8
		c31.5-11.6,61.9-10.9,67.8,1.6c1.7,3.6,1.1,7.8-1.3,12.3c-5.9,10.9-23,23.2-45.4,31.5c-2.2,0.8-4.3,1.5-6.5,2.2
		c-13.1,4.2-26.1,6.3-37.1,6c-6.2-0.2-11.5-1.1-15.6-2.7c-4.2-1.7-7.1-4.1-8.5-7.1c-1.3-2.7-1.3-5.8-0.2-9.1l-0.5-0.5
		c-1.3,3.6-1.3,6.9,0.1,9.8c1.5,3.2,4.4,5.7,8.8,7.4c4.2,1.7,9.5,2.6,15.8,2.8c0.7,0,1.3,0,2,0c11.1,0,24-2.3,37-6.6
		c1.6-0.5,3.3-1.1,4.9-1.7c15.4-5.7,28.8-13.4,37.6-21.8c3.5-3.3,6.1-6.5,7.9-9.7c0.4-0.8,0.8-1.5,1.1-2.2
		C197.1,63.2,197.3,59.6,195.8,56.4z"/>
	
		<radialGradient id="SVGID_00000065769142957812781090000014078874393620065703_" cx="-156.3644" cy="497.4241" r="1" gradientTransform="matrix(27.493 -8.5968 -16.0347 -40.6462 12397.7461 18931.1895)" gradientUnits="userSpaceOnUse">
		<stop  offset="0" style="stop-color:#171225"/>
		<stop  offset="1" style="stop-color:#171225;stop-opacity:0"/>
	</radialGradient>
	<path style="fill:url(#SVGID_00000065769142957812781090000014078874393620065703_);" d="M195.8,56.4c-1.5-3.2-4.4-5.7-8.8-7.4
		c-4.2-1.7-9.5-2.6-15.8-2.8c-12.9-0.3-28.5,2.6-43.9,8.3c-1.1,0.4-2.2,0.8-3.3,1.3l1.5,0c0.7-0.3,1.3-0.5,2-0.8
		c31.5-11.6,61.9-10.9,67.8,1.6c1.7,3.6,1.1,7.8-1.3,12.3c-5.9,10.9-23,23.2-45.4,31.5c-2.2,0.8-4.3,1.5-6.5,2.2
		c-13.1,4.2-26.1,6.3-37.1,6c-6.2-0.2-11.5-1.1-15.6-2.7c-4.2-1.7-7.1-4.1-8.5-7.1c-1.3-2.7-1.3-5.8-0.2-9.1l-0.5-0.5
		c-1.3,3.6-1.3,6.9,0.1,9.8c1.5,3.2,4.4,5.7,8.8,7.4c4.2,1.7,9.5,2.6,15.8,2.8c0.7,0,1.3,0,2,0c11.1,0,24-2.3,37-6.6
		c1.6-0.5,3.3-1.1,4.9-1.7c15.4-5.7,28.8-13.4,37.6-21.8c3.5-3.3,6.1-6.5,7.9-9.7c0.4-0.8,0.8-1.5,1.1-2.2
		C197.1,63.2,197.3,59.6,195.8,56.4z"/>
	<path class="st2" d="M195.8,56.4c-1.5-3.2-4.4-5.7-8.8-7.4c-4.2-1.7-9.5-2.6-15.8-2.8c-12.9-0.3-28.5,2.6-43.9,8.3
		c-1.1,0.4-2.2,0.8-3.3,1.3l1.5,0c0.7-0.3,1.3-0.5,2-0.8c31.5-11.6,61.9-10.9,67.8,1.6c1.7,3.6,1.1,7.8-1.3,12.3
		c-5.9,10.9-23,23.2-45.4,31.5c-2.2,0.8-4.3,1.5-6.5,2.2c-13.1,4.2-26.1,6.3-37.1,6c-6.2-0.2-11.5-1.1-15.6-2.7
		c-4.2-1.7-7.1-4.1-8.5-7.1c-1.3-2.7-1.3-5.8-0.2-9.1l-0.5-0.5c-1.3,3.6-1.3,6.9,0.1,9.8c1.5,3.2,4.4,5.7,8.8,7.4
		c4.2,1.7,9.5,2.6,15.8,2.8c0.7,0,1.3,0,2,0c11.1,0,24-2.3,37-6.6c1.6-0.5,3.3-1.1,4.9-1.7c15.4-5.7,28.8-13.4,37.6-21.8
		c3.5-3.3,6.1-6.5,7.9-9.7c0.4-0.8,0.8-1.5,1.1-2.2C197.1,63.2,197.3,59.6,195.8,56.4z"/>
</g>
</svg>
